<svg width="313" height="220" viewBox="0 0 313 220" fill="none" xmlns="http://www.w3.org/2000/svg">
<path d="M156.5 13.25C194.604 13.25 229.133 24.0322 254.156 41.5029C279.177 58.9719 294.75 83.1775 294.75 110C294.75 136.822 279.177 161.028 254.156 178.497C229.133 195.968 194.604 206.75 156.5 206.75C118.396 206.75 83.867 195.968 58.8438 178.497C33.823 161.028 18.25 136.822 18.25 110C18.25 83.1775 33.823 58.9719 58.8438 41.5029C83.867 24.0322 118.396 13.25 156.5 13.25Z" stroke="#D9E6FF" stroke-width="1.5"/>
<path d="M156.5 7.25C197.089 7.25 233.868 18.7035 260.52 37.2598C287.169 55.8142 303.75 81.5197 303.75 110C303.75 138.48 287.169 164.186 260.52 182.74C233.868 201.296 197.089 212.75 156.5 212.75C115.911 212.75 79.1323 201.296 52.4805 182.74C25.8313 164.186 9.25 138.48 9.25 110C9.25 81.5197 25.8313 55.8142 52.4805 37.2598C79.1323 18.7035 115.911 7.25 156.5 7.25Z" stroke="#D9E6FF" stroke-width="1.5"/>
<path d="M156.5 1.25C199.299 1.25 238.078 13.3751 266.178 33.0176C294.275 52.6584 311.75 79.8642 311.75 110C311.75 140.136 294.275 167.342 266.178 186.982C238.078 206.625 199.299 218.75 156.5 218.75C113.701 218.75 74.9219 206.625 46.8223 186.982C18.725 167.342 1.25 140.136 1.25 110C1.25 79.8642 18.725 52.6584 46.8223 33.0176C74.9219 13.3751 113.701 1.25 156.5 1.25Z" stroke="#D9E6FF" stroke-width="1.5"/>
<circle cx="26.5" cy="172.5" r="10.5" fill="#D9E6FF"/>
<circle cx="37" cy="59" r="8" fill="#D9E6FF"/>
<circle cx="280.5" cy="60.5" r="9.5" fill="#D9E6FF"/>
<circle cx="259.5" cy="182.5" r="11.5" fill="#D9E6FF"/>
</svg>
